#!OML:ASF F:\VICON\USERDATA\INSTALL\rory3\rory3.ASF
:FULLY-SPECIFIED
:DEGREES
158
root -0.4152531354365011 17.515873789231 42.26448758611993 2.6810978890682895 2.6629992231189887 0.4972481390255683
lfemur 4.068688210238111 -2.863329836386069 -29.694886509969084
ltibia 14.549310218805452
lfoot -13.559704244900704 3.3141594101743728
ltoes -22.94135725348857
rfemur -42.02355332949182 -8.382053734084554 17.805336689906767
rtibia 61.25584482487569
rfoot 0.8364370841782081 -7.5114460219537325
rtoes -25.006508719298456
lowerback 1.0 -1.2090996946475427 -2.84728813978556
upperback 0.1861111262507008 -0.46644651950083715 -0.2053295568340785
thorax -7.432228553592138 -0.8864761055637165 2.985658804541073
lowerneck -18.705061061255932 -4.127601326083692 -2.322940744372285
upperneck 10.42487762358987 -4.9856145723897685 4.387430506459772
head 6.712188737701066 -2.0077709260476753 1.491631658547787
lclavicle 1.6082089043614215e-14 2.206998021694129e-15
lhumerus -43.565476154123274 -5.412888773922124 92.32536385841924
lradius 129.1776734982849
lwrist 7.820087333316035
lhand -33.27061574547166 -5.3820385028549325
lfingers nan
lthumb -7.2768446405974085 23.80041490973302
rclavicle 2.073772253808276e-14 5.222750771129962e-15
rhumerus -61.60216867961732 3.4298435931935805 -90.21817188449711
rradius 107.46190166730433
rwrist -11.483844707385115
rhand -19.836674502051807 1.0
rfingers nan
rthumb 6.4838374139762385 0.8674420080550647
159
root -0.39694450537130826 17.572065766882584 42.656269072672785 2.6852867965402583 2.7233404275356508 0.5574788324732856
lfemur 4.7784955411506225 -2.911958287982107 -29.547469434473804
ltibia 14.33852549311763
lfoot -13.099767691874625 3.096847221656999
ltoes -22.865913638670122
rfemur -43.095937486487585 -8.44375732041533 17.7722534168904
rtibia 60.54630110195878
rfoot 0.9124098226257149 -7.501285701386278
rtoes -25.277349378747605
lowerback 1.0 -1.1937884602438593 -2.7683458581410454
upperback 0.15856141093789733 -0.46859601091815795 -0.1953485675817277
thorax -7.410547963929448 -0.871573690612431 2.979530535285578
lowerneck -18.74014231028987 -4.12181934138856 -2.2928150888152175
upperneck 10.413397782668916 -5.0247548718763095 4.311597028449944
head 6.716173930502691 -2.0123289538214855 1.4666300770996368
lclavicle 1.6099781583040406e-14 2.28506597833307e-15
lhumerus -43.51969893747084 -5.5673394734189054 92.35528935559758
lradius 129.15882271465475
lwrist 9.202393337606637
lhand -33.127929016142375 -5.267156544677545
lfingers nan
lthumb -7.175703508880339 23.86668980804606
rclavicle 2.0866466443325237e-14 5.2943196273432416e-15
rhumerus -61.23100285627336 3.4560641375447965 -90.4242456234114
rradius 107.61447618325036
rwrist -11.622734201185752
rhand -19.856497311215914 1.0
rfingers nan
rthumb 6.467956219977353 1.1897446336747404
160
root -0.3820178918177138 17.617495913593668 42.98933807702151 2.6906758890049005 2.6120910039292893 0.6516944762647414
lfemur 5.501366757569166 -2.953682533430581 -29.368000864618764
ltibia 14.117055413766757
lfoot -12.6484169302874 2.7514778192912672
ltoes -22.8184638977476
rfemur -44.06132023375001 -8.448723246056971 17.7978116835752
rtibia 59.84273519118357
rfoot 0.9425546794080781 -7.503352269763663
rtoes -25.62846784644933
lowerback 1.0 -1.1875736598665607 -2.7381750957385007
upperback 0.13745089528864984 -0.45173995931309263 -0.19275542004256008
thorax -7.391211072672867 -0.8632948285629598 2.9806166209536
lowerneck -18.776449710313113 -4.114769784916222 -2.259724165996863
upperneck 10.45282740471902 -5.044730334052967 4.236591286398057
head 6.725217077642359 -2.0173353176482496 1.439836114547023
lclavicle 1.600074278857475e-14 2.2621242945221485e-15
lhumerus -43.446196801401214 -5.731004059945665 92.36172941372014
lradius 129.13319773984904
lwrist 10.403078328740985
lhand -32.9850467899339 -5.153035020647102
lfingers nan
lthumb -7.08648493230316 23.926579236669618
rclavicle 2.0988570191189168e-14 5.211198005948468e-15
rhumerus -60.877311550299424 3.4694366712039892 -90.55985241762629
rradius 107.77019803200587
rwrist -11.77760402715635
rhand -19.889409133952096 1.0
rfingers nan
rthumb 6.440995161894094 1.4934502465440218
161
root -0.3714993748119195 17.65457613467475 43.1122275322121 2.684272472298262 2.5214154464267704 0.7356811403823862
lfemur 6.184545578719838 -2.9989060752939167 -29.179757577432397
ltibia 13.89160289541524
lfoot -12.13017758893795 2.386951370718341
ltoes -22.925086558414442
rfemur -44.70222142956717 -8.467456854234062 17.876326364252613
rtibia 59.14535822241355
rfoot 0.9264988315960085 -7.505460258648105
rtoes -25.91706788736272
lowerback 1.0 -1.1929145414203997 -2.731329812752131
upperback 0.13047968267051624 -0.42104681688849865 -0.20118339016838171
thorax -7.381622844364497 -0.8676427247549441 2.979627613626028
lowerneck -18.812214259318296 -4.1066861031725415 -2.2309713705537537
upperneck 10.456309580257424 -5.071311928554304 4.130070782855193
head 6.725350062147185 -2.014956264338029 1.406537154314423
lclavicle 1.585085172196225e-14 2.0585783278281933e-15
lhumerus -43.3720429143523 -5.922575693777314 92.36748505261963
lradius 129.10776471420454
lwrist 11.477863697677634
lhand -32.85593801997191 -5.0606051504450305
lfingers nan
lthumb -6.995719317043685 23.995992916016903
rclavicle 2.0961529314138876e-14 4.95225241366351e-15
rhumerus -60.56479211852941 3.49554852291239 -90.67769308961964
rradius 107.93140576993873
rwrist -11.936505137484998
rhand -19.937416308059216 1.0
rfingers nan
rthumb 6.398716852123643 1.7843436749963368
